<svg xmlns="http://www.w3.org/2000/svg" xmlns:xlink="http://www.w3.org/1999/xlink" width="500" zoomAndPan="magnify" viewBox="0 0 375 374.999991" height="500" preserveAspectRatio="xMidYMid meet" version="1.0"><defs><g/><clipPath id="118311385a"><path d="M 9.246094 9.246094 L 363.945312 9.246094 L 363.945312 363.945312 L 9.246094 363.945312 Z M 9.246094 9.246094 " clip-rule="nonzero"/></clipPath><clipPath id="64a648d4dc"><path d="M 186.59375 9.246094 C 88.648438 9.246094 9.246094 88.648438 9.246094 186.59375 C 9.246094 284.542969 88.648438 363.945312 186.59375 363.945312 C 284.542969 363.945312 363.945312 284.542969 363.945312 186.59375 C 363.945312 88.648438 284.542969 9.246094 186.59375 9.246094 Z M 186.59375 9.246094 " clip-rule="nonzero"/></clipPath><clipPath id="4568cb459b"><path d="M 72 72 L 301 72 L 301 301 L 72 301 Z M 72 72 " clip-rule="nonzero"/></clipPath><clipPath id="749febcfa6"><path d="M 25.390625 182.351562 L 190.792969 25.425781 L 347.722656 190.824219 L 182.320312 347.753906 Z M 25.390625 182.351562 " clip-rule="nonzero"/></clipPath><clipPath id="63d0fa4e51"><path d="M 347.789062 190.828125 L 182.386719 347.753906 L 25.457031 182.355469 L 190.859375 25.425781 Z M 347.789062 190.828125 " clip-rule="nonzero"/></clipPath></defs><rect x="-37.5" width="450" fill="#ffffff" y="-37.499999" height="449.999989" fill-opacity="1"/><rect x="-37.5" width="450" fill="#ea5151" y="-37.499999" height="449.999989" fill-opacity="1"/><g clip-path="url(#118311385a)"><g clip-path="url(#64a648d4dc)"><path fill="#ffffff" d="M 9.246094 9.246094 L 363.945312 9.246094 L 363.945312 363.945312 L 9.246094 363.945312 Z M 9.246094 9.246094 " fill-opacity="1" fill-rule="nonzero"/></g></g><g fill="#596c76" fill-opacity="1"><g transform="translate(53.870685, 185.521101)"><g><path d="M -23.34375 -26.203125 L -7.15625 -14.828125 L 1.40625 -13.96875 L 1.0625 -10.53125 L -7.5 -11.390625 L -25.625 -3.59375 L -25.1875 -7.84375 L -11.25 -13.59375 L -23.765625 -21.96875 Z M -23.34375 -26.203125 "/></g></g></g><g fill="#596c76" fill-opacity="1"><g transform="translate(58.295318, 154.062483)"><g><path d="M -1.765625 -10.296875 C 0.191406 -9.691406 1.769531 -8.796875 2.96875 -7.609375 C 4.164062 -6.429688 4.941406 -5.054688 5.296875 -3.484375 C 5.648438 -1.910156 5.59375 -0.265625 5.125 1.453125 L 1.921875 0.46875 C 2.335938 -1.238281 2.148438 -2.753906 1.359375 -4.078125 C 0.578125 -5.398438 -0.832031 -6.375 -2.875 -7 L -23.015625 -13.15625 L -22 -16.46875 Z M -1.765625 -10.296875 "/></g></g></g><g fill="#596c76" fill-opacity="1"><g transform="translate(64.962251, 134.619049)"><g><path d="M -18.609375 -9.84375 C -18.816406 -10.40625 -19.160156 -10.945312 -19.640625 -11.46875 C -20.128906 -11.988281 -20.6875 -12.394531 -21.3125 -12.6875 C -21.46875 -12.75 -21.726562 -12.84375 -22.09375 -12.96875 L -21.21875 -15.5 C -20.894531 -15.40625 -20.644531 -15.316406 -20.46875 -15.234375 C -19.632812 -14.859375 -18.90625 -14.269531 -18.28125 -13.46875 C -17.664062 -12.664062 -17.28125 -11.847656 -17.125 -11.015625 Z M -18.609375 -9.84375 "/></g></g></g><g fill="#596c76" fill-opacity="1"><g transform="translate(70.772507, 121.911591)"><g><path d="M -8.234375 -25.96875 C -9.171875 -25.46875 -10.054688 -24.867188 -10.890625 -24.171875 C -11.722656 -23.472656 -12.394531 -22.738281 -12.90625 -21.96875 C -13.6875 -20.789062 -14.039062 -19.6875 -13.96875 -18.65625 C -13.90625 -17.625 -13.414062 -16.804688 -12.5 -16.203125 C -11.601562 -15.609375 -10.601562 -15.519531 -9.5 -15.9375 C -8.40625 -16.363281 -7.085938 -17.140625 -5.546875 -18.265625 C -4.410156 -19.117188 -3.351562 -19.769531 -2.375 -20.21875 C -1.40625 -20.664062 -0.34375 -20.867188 0.8125 -20.828125 C 1.976562 -20.785156 3.195312 -20.347656 4.46875 -19.515625 C 5.613281 -18.742188 6.460938 -17.757812 7.015625 -16.5625 C 7.578125 -15.375 7.769531 -14.070312 7.59375 -12.65625 C 7.414062 -11.238281 6.851562 -9.816406 5.90625 -8.390625 C 5.019531 -7.054688 3.957031 -5.914062 2.71875 -4.96875 C 1.476562 -4.019531 0.21875 -3.296875 -1.0625 -2.796875 L -2.515625 -5.609375 C -1.460938 -5.972656 -0.398438 -6.539062 0.671875 -7.3125 C 1.753906 -8.082031 2.59375 -8.914062 3.1875 -9.8125 C 3.945312 -10.957031 4.3125 -12.160156 4.28125 -13.421875 C 4.257812 -14.691406 3.660156 -15.710938 2.484375 -16.484375 C 1.492188 -17.140625 0.46875 -17.300781 -0.59375 -16.96875 C -1.664062 -16.632812 -2.890625 -15.988281 -4.265625 -15.03125 C -5.535156 -14.113281 -6.65625 -13.398438 -7.625 -12.890625 C -8.59375 -12.378906 -9.648438 -12.085938 -10.796875 -12.015625 C -11.941406 -11.941406 -13.085938 -12.285156 -14.234375 -13.046875 C -15.929688 -14.171875 -16.90625 -15.671875 -17.15625 -17.546875 C -17.414062 -19.421875 -16.953125 -21.320312 -15.765625 -23.25 C -14.222656 -25.570312 -12.21875 -27.335938 -9.75 -28.546875 Z M -8.234375 -25.96875 "/></g></g></g><g fill="#596c76" fill-opacity="1"><g transform="translate(87.11004, 99.195368)"><g/></g></g><g fill="#596c76" fill-opacity="1"><g transform="translate(99.933728, 85.891782)"><g><path d="M 14.5625 -10.46875 L 4.046875 -14.671875 C 3.910156 -14.546875 3.6875 -14.367188 3.375 -14.140625 L 0.28125 -11.921875 L 5.828125 -4.203125 L 3.015625 -2.171875 L -12.078125 -23.15625 L -6.484375 -27.1875 C -5.054688 -28.207031 -3.597656 -28.867188 -2.109375 -29.171875 C -0.617188 -29.484375 0.789062 -29.378906 2.125 -28.859375 C 3.46875 -28.347656 4.640625 -27.398438 5.640625 -26.015625 C 6.566406 -24.722656 7.132812 -23.328125 7.34375 -21.828125 C 7.550781 -20.335938 7.265625 -18.890625 6.484375 -17.484375 L 17.84375 -12.84375 Z M 1.359375 -16.828125 C 2.867188 -17.910156 3.671875 -19.085938 3.765625 -20.359375 C 3.867188 -21.640625 3.550781 -22.789062 2.8125 -23.8125 C 2.363281 -24.425781 1.78125 -24.929688 1.0625 -25.328125 C 0.351562 -25.722656 -0.445312 -25.898438 -1.34375 -25.859375 C -2.238281 -25.828125 -3.148438 -25.476562 -4.078125 -24.8125 L -7.328125 -22.484375 L -1.6875 -14.640625 Z M 1.359375 -16.828125 "/></g></g></g><g fill="#596c76" fill-opacity="1"><g transform="translate(125.106971, 68.761541)"><g><path d="M 9 -31.75 L 10.28125 -28.671875 L -2.015625 -23.546875 L 1 -16.296875 L 11.96875 -20.875 L 13.25 -17.796875 L 2.28125 -13.21875 L 5.34375 -5.859375 L 18.09375 -11.1875 L 19.390625 -8.09375 L 3.4375 -1.4375 L -6.5 -25.296875 Z M 9 -31.75 "/></g></g></g><g fill="#596c76" fill-opacity="1"><g transform="translate(153.230217, 57.812546)"><g><path d="M 22.078125 -5.546875 C 21.347656 -4.878906 20.390625 -4.210938 19.203125 -3.546875 C 18.015625 -2.890625 16.679688 -2.441406 15.203125 -2.203125 C 12.597656 -1.773438 10.207031 -1.972656 8.03125 -2.796875 C 5.863281 -3.617188 4.082031 -4.914062 2.6875 -6.6875 C 1.300781 -8.46875 0.414062 -10.535156 0.03125 -12.890625 C -0.382812 -15.410156 -0.21875 -17.765625 0.53125 -19.953125 C 1.28125 -22.140625 2.519531 -23.957031 4.25 -25.40625 C 5.988281 -26.863281 8.070312 -27.789062 10.5 -28.1875 C 11.925781 -28.414062 13.296875 -28.441406 14.609375 -28.265625 C 15.921875 -28.097656 17.117188 -27.789062 18.203125 -27.34375 L 17.328125 -23.90625 C 15.179688 -24.90625 13.117188 -25.242188 11.140625 -24.921875 C 9.492188 -24.648438 8.039062 -23.960938 6.78125 -22.859375 C 5.519531 -21.765625 4.59375 -20.398438 4 -18.765625 C 3.414062 -17.140625 3.269531 -15.4375 3.5625 -13.65625 C 3.863281 -11.820312 4.515625 -10.222656 5.515625 -8.859375 C 6.523438 -7.503906 7.804688 -6.523438 9.359375 -5.921875 C 10.921875 -5.328125 12.628906 -5.179688 14.484375 -5.484375 C 16.765625 -5.859375 18.644531 -6.828125 20.125 -8.390625 Z M 22.078125 -5.546875 "/></g></g></g><g fill="#596c76" fill-opacity="1"><g transform="translate(184.416724, 53.217605)"><g><path d="M 3.34375 -12.640625 C 3.570312 -14.984375 4.378906 -17.101562 5.765625 -19 C 7.148438 -20.90625 8.898438 -22.359375 11.015625 -23.359375 C 13.128906 -24.359375 15.375 -24.742188 17.75 -24.515625 C 20.09375 -24.285156 22.210938 -23.472656 24.109375 -22.078125 C 26.015625 -20.679688 27.46875 -18.914062 28.46875 -16.78125 C 29.46875 -14.65625 29.851562 -12.421875 29.625 -10.078125 C 29.394531 -7.703125 28.585938 -5.5625 27.203125 -3.65625 C 25.816406 -1.757812 24.050781 -0.328125 21.90625 0.640625 C 19.769531 1.617188 17.53125 1.992188 15.1875 1.765625 C 12.8125 1.535156 10.671875 0.742188 8.765625 -0.609375 C 6.867188 -1.972656 5.429688 -3.710938 4.453125 -5.828125 C 3.472656 -7.941406 3.101562 -10.210938 3.34375 -12.640625 Z M 6.90625 -12.25 C 6.726562 -10.5 6.992188 -8.832031 7.703125 -7.25 C 8.421875 -5.675781 9.472656 -4.378906 10.859375 -3.359375 C 12.253906 -2.335938 13.828125 -1.742188 15.578125 -1.578125 C 17.347656 -1.398438 19 -1.671875 20.53125 -2.390625 C 22.070312 -3.117188 23.332031 -4.191406 24.3125 -5.609375 C 25.300781 -7.035156 25.882812 -8.640625 26.0625 -10.421875 C 26.238281 -12.191406 25.972656 -13.878906 25.265625 -15.484375 C 24.566406 -17.085938 23.523438 -18.398438 22.140625 -19.421875 C 20.765625 -20.441406 19.195312 -21.035156 17.4375 -21.203125 C 15.6875 -21.367188 14.03125 -21.082031 12.46875 -20.34375 C 10.914062 -19.601562 9.644531 -18.515625 8.65625 -17.078125 C 7.664062 -15.640625 7.082031 -14.03125 6.90625 -12.25 Z M 6.90625 -12.25 "/></g></g></g><g fill="#596c76" fill-opacity="1"><g transform="translate(221.321845, 57.586517)"><g><path d="M 37.265625 -13.609375 L 27.234375 11.078125 L 24.078125 9.78125 L 30.375 -5.703125 L 16.46875 3.1875 L 16.421875 3.15625 L 12.6875 -12.390625 L 6.5625 2.671875 L 3.4375 1.40625 L 13.46875 -23.28125 L 13.5 -23.28125 L 18.5 -1.796875 L 37.25 -13.625 Z M 37.265625 -13.609375 "/></g></g></g><g fill="#596c76" fill-opacity="1"><g transform="translate(257.626502, 73.389645)"><g><path d="M 39.640625 -2.078125 L 22.796875 18.578125 L 20.140625 16.421875 L 30.703125 3.46875 L 14.8125 7.890625 L 14.765625 7.84375 L 15.765625 -8.140625 L 5.484375 4.46875 L 2.875 2.34375 L 19.71875 -18.3125 L 19.75 -18.28125 L 18.21875 3.703125 L 39.609375 -2.09375 Z M 39.640625 -2.078125 "/></g></g></g><g fill="#596c76" fill-opacity="1"><g transform="translate(287.430589, 99.64472)"><g><path d="M 32.953125 1.5625 L 30.25 3.5 L 22.46875 -7.328125 L 16.09375 -2.734375 L 23.03125 6.921875 L 20.328125 8.859375 L 13.390625 -0.796875 L 6.921875 3.859375 L 15 15.09375 L 12.28125 17.0625 L 2.171875 3.015625 L 23.140625 -12.078125 Z M 32.953125 1.5625 "/></g></g></g><g fill="#596c76" fill-opacity="1"><g transform="translate(304.664038, 124.329141)"><g><path d="M 33.625 15.03125 L 8.75 24.75 L 8.71875 24.640625 L 19.734375 -0.046875 L 2.625 6.71875 L 1.359375 3.46875 L 26.15625 -6.21875 L 26.21875 -6.0625 L 14.96875 18.671875 L 32.359375 11.796875 Z M 33.625 15.03125 "/></g></g></g><g fill="#596c76" fill-opacity="1"><g transform="translate(316.964996, 158.774336)"><g><path d="M 26.09375 0.90625 L 26.859375 7.9375 C 27.203125 11.125 26.851562 13.835938 25.8125 16.078125 C 24.78125 18.316406 23.3125 20.023438 21.40625 21.203125 C 19.507812 22.378906 17.445312 23.085938 15.21875 23.328125 C 12.738281 23.597656 10.476562 23.253906 8.4375 22.296875 C 6.40625 21.347656 4.769531 19.957031 3.53125 18.125 C 2.289062 16.289062 1.546875 14.238281 1.296875 11.96875 L 0.40625 3.703125 Z M 4.5625 10.9375 C 4.769531 12.832031 5.328125 14.484375 6.234375 15.890625 C 7.140625 17.296875 8.347656 18.34375 9.859375 19.03125 C 11.367188 19.726562 13.109375 19.96875 15.078125 19.75 C 17.097656 19.53125 18.78125 18.90625 20.125 17.875 C 21.476562 16.84375 22.445312 15.554688 23.03125 14.015625 C 23.625 12.472656 23.832031 10.863281 23.65625 9.1875 L 23.171875 4.703125 L 4.125 6.78125 Z M 4.5625 10.9375 "/></g></g></g><g clip-path="url(#4568cb459b)"><g clip-path="url(#749febcfa6)"><g clip-path="url(#63d0fa4e51)"><path fill="#596c76" d="M 150.277344 187.910156 C 143.34375 184.679688 138.628906 177.585938 138.855469 169.476562 L 139.375 149.714844 C 139.347656 149.554688 139.367188 149.375 139.390625 149.199219 L 143.703125 100.214844 C 143.757812 99.628906 144.261719 99.183594 144.847656 99.191406 C 145.453125 99.21875 145.921875 99.683594 145.953125 100.285156 L 147.691406 149.433594 C 147.6875 149.59375 147.664062 149.773438 147.644531 149.949219 L 149.757812 149.988281 C 149.761719 149.828125 149.765625 149.632812 149.785156 149.488281 L 154.089844 100.484375 C 154.144531 99.898438 154.648438 99.453125 155.234375 99.460938 C 155.835938 99.488281 156.304688 99.953125 156.335938 100.554688 L 158.078125 149.703125 C 158.085938 149.882812 158.050781 150.039062 158.039062 150.210938 L 160.160156 150.269531 C 160.164062 150.113281 160.167969 149.921875 160.175781 149.753906 L 164.492188 100.765625 C 164.550781 100.179688 165.054688 99.734375 165.640625 99.742188 C 166.226562 99.75 166.714844 100.234375 166.726562 100.816406 L 168.464844 149.96875 C 168.476562 150.144531 168.457031 150.320312 168.441406 150.492188 L 170.550781 150.535156 C 170.550781 150.375 170.558594 150.183594 170.578125 150.039062 L 174.886719 101.03125 C 174.941406 100.441406 175.441406 99.996094 176.046875 100.023438 C 176.632812 100.03125 177.101562 100.496094 177.132812 101.097656 L 178.871094 150.25 C 178.882812 150.429688 178.847656 150.585938 178.832031 150.757812 L 178.863281 150.757812 L 178.351562 170.515625 C 178.121094 178.625 173.054688 185.476562 165.960938 188.304688 L 166.230469 298.789062 C 200.75 305.019531 237.675781 295.300781 265.070312 269.308594 C 310.753906 225.964844 312.648438 153.792969 269.308594 108.109375 C 257.519531 95.683594 243.601562 86.507812 228.667969 80.589844 L 222.617188 190.359375 C 234.4375 194.976562 242.820312 209.261719 242.382812 225.945312 C 241.847656 246.058594 228.414062 273.976562 212.746094 273.5625 C 197.074219 273.152344 185.101562 244.5625 185.636719 224.453125 C 186.066406 207.773438 195.191406 193.945312 207.238281 189.957031 L 206.953125 74.40625 C 172.421875 68.160156 135.507812 77.878906 108.109375 103.871094 C 62.433594 147.210938 60.535156 219.394531 103.871094 265.070312 C 115.65625 277.492188 129.578125 286.664062 144.503906 292.589844 L 150.277344 187.910156 " fill-opacity="1" fill-rule="nonzero"/></g></g></g></svg>