<svg xmlns="http://www.w3.org/2000/svg" xmlns:xlink="http://www.w3.org/1999/xlink" width="500" zoomAndPan="magnify" viewBox="0 0 375 374.999991" height="500" preserveAspectRatio="xMidYMid meet" version="1.0"><defs><clipPath id="c261230b29"><path d="M 17.152344 17.152344 L 371.425781 17.152344 L 371.425781 371.425781 L 17.152344 371.425781 Z M 17.152344 17.152344 " clip-rule="nonzero"/></clipPath><clipPath id="b0e55e0e52"><path d="M 194.289062 17.152344 C 96.460938 17.152344 17.152344 96.460938 17.152344 194.289062 C 17.152344 292.121094 96.460938 371.425781 194.289062 371.425781 C 292.121094 371.425781 371.425781 292.121094 371.425781 194.289062 C 371.425781 96.460938 292.121094 17.152344 194.289062 17.152344 Z M 194.289062 17.152344 " clip-rule="nonzero"/></clipPath><clipPath id="1fa1815faf"><path d="M 2 2 L 373 2 L 373 373 L 2 373 Z M 2 2 " clip-rule="nonzero"/></clipPath><clipPath id="689d5d0489"><path d="M -73.878906 178.070312 L 196.824219 -73.792969 L 448.6875 196.914062 L 177.980469 448.773438 Z M -73.878906 178.070312 " clip-rule="nonzero"/></clipPath><clipPath id="2710a74929"><path d="M 448.867188 196.921875 L 178.164062 448.78125 L -73.695312 178.074219 L 197.007812 -73.785156 Z M 448.867188 196.921875 " clip-rule="nonzero"/></clipPath></defs><rect x="-37.5" width="450" fill="#ffffff" y="-37.499999" height="449.999989" fill-opacity="1"/><rect x="-37.5" width="450" fill="#ffffff" y="-37.499999" height="449.999989" fill-opacity="1"/><g clip-path="url(#c261230b29)"><g clip-path="url(#b0e55e0e52)"><path fill="#ffffff" d="M 17.152344 17.152344 L 371.425781 17.152344 L 371.425781 371.425781 L 17.152344 371.425781 Z M 17.152344 17.152344 " fill-opacity="1" fill-rule="nonzero"/></g></g><g clip-path="url(#1fa1815faf)"><g clip-path="url(#689d5d0489)"><g clip-path="url(#2710a74929)"><path fill="#ffde59" d="M 128.578125 189.058594 C 117.386719 183.710938 109.847656 172.132812 110.347656 158.984375 L 111.503906 126.941406 C 111.460938 126.679688 111.5 126.390625 111.535156 126.105469 L 119.308594 46.726562 C 119.40625 45.777344 120.230469 45.0625 121.183594 45.085938 C 122.160156 45.136719 122.914062 45.898438 122.953125 46.875 L 124.996094 126.617188 C 124.984375 126.878906 124.949219 127.164062 124.910156 127.453125 L 128.335938 127.550781 C 128.347656 127.289062 128.359375 126.972656 128.390625 126.738281 L 136.148438 47.328125 C 136.246094 46.378906 137.070312 45.660156 138.023438 45.6875 C 138.996094 45.738281 139.753906 46.503906 139.789062 47.476562 L 141.835938 127.214844 C 141.847656 127.507812 141.789062 127.765625 141.761719 128.039062 L 145.207031 128.171875 C 145.210938 127.914062 145.222656 127.601562 145.234375 127.335938 L 153.019531 47.953125 C 153.117188 47 153.941406 46.285156 154.894531 46.308594 C 155.847656 46.332031 156.625 47.121094 156.640625 48.070312 L 158.679688 127.8125 C 158.695312 128.101562 158.660156 128.386719 158.632812 128.664062 L 162.054688 128.765625 C 162.058594 128.507812 162.070312 128.195312 162.105469 127.957031 L 169.867188 48.542969 C 169.96875 47.589844 170.789062 46.878906 171.765625 46.929688 C 172.71875 46.953125 173.472656 47.714844 173.511719 48.691406 L 175.550781 128.433594 C 175.566406 128.722656 175.507812 128.976562 175.480469 129.257812 L 175.53125 129.261719 L 174.386719 161.292969 C 173.886719 174.441406 165.558594 185.472656 154.011719 189.953125 L 152.699219 369.144531 C 208.582031 379.796875 268.625 364.617188 313.46875 322.894531 C 388.246094 253.320312 392.46875 136.300781 322.894531 61.519531 C 303.972656 41.183594 281.542969 26.078125 257.417969 16.242188 L 245.871094 194.183594 C 264.96875 201.855469 278.335938 225.15625 277.359375 252.210938 C 276.175781 284.816406 253.945312 329.886719 228.535156 328.96875 C 203.128906 328.050781 184.164062 281.496094 185.351562 248.886719 C 186.3125 221.847656 201.332031 199.5625 220.933594 193.285156 L 222.300781 5.871094 C 166.394531 -4.808594 106.367188 10.371094 61.519531 52.09375 C -13.246094 121.65625 -17.46875 238.703125 52.09375 313.46875 C 71.011719 333.800781 93.441406 348.894531 117.558594 358.742188 L 128.578125 189.058594 " fill-opacity="1" fill-rule="nonzero"/></g></g></g></svg>