<svg xmlns="http://www.w3.org/2000/svg" xmlns:xlink="http://www.w3.org/1999/xlink" width="500" zoomAndPan="magnify" viewBox="0 0 375 374.999991" height="500" preserveAspectRatio="xMidYMid meet" version="1.0"><defs><clipPath id="a719319ace"><path d="M 17.152344 17.152344 L 371.425781 17.152344 L 371.425781 371.425781 L 17.152344 371.425781 Z M 17.152344 17.152344 " clip-rule="nonzero"/></clipPath><clipPath id="5cb64df6af"><path d="M 194.289062 17.152344 C 96.460938 17.152344 17.152344 96.460938 17.152344 194.289062 C 17.152344 292.121094 96.460938 371.425781 194.289062 371.425781 C 292.121094 371.425781 371.425781 292.121094 371.425781 194.289062 C 371.425781 96.460938 292.121094 17.152344 194.289062 17.152344 Z M 194.289062 17.152344 " clip-rule="nonzero"/></clipPath><clipPath id="94144ca2d7"><path d="M 27 27 L 361 27 L 361 361 L 27 361 Z M 27 27 " clip-rule="nonzero"/></clipPath><clipPath id="f8ee688773"><path d="M -40.851562 185.808594 L 202.949219 -41.019531 L 429.777344 202.78125 L 185.976562 429.609375 Z M -40.851562 185.808594 " clip-rule="nonzero"/></clipPath><clipPath id="0c7db2f59c"><path d="M 429.429688 202.769531 L 185.628906 429.597656 L -41.199219 185.796875 L 202.601562 -41.03125 Z M 429.429688 202.769531 " clip-rule="nonzero"/></clipPath></defs><rect x="-37.5" width="450" fill="#ffffff" y="-37.499999" height="449.999989" fill-opacity="1"/><rect x="-37.5" width="450" fill="#ffbd59" y="-37.499999" height="449.999989" fill-opacity="1"/><g clip-path="url(#a719319ace)"><g clip-path="url(#5cb64df6af)"><path fill="#ffffff" d="M 17.152344 17.152344 L 371.425781 17.152344 L 371.425781 371.425781 L 17.152344 371.425781 Z M 17.152344 17.152344 " fill-opacity="1" fill-rule="nonzero"/></g></g><g clip-path="url(#94144ca2d7)"><g clip-path="url(#f8ee688773)"><g clip-path="url(#0c7db2f59c)"><path fill="#ffde59" d="M 141.285156 195.699219 C 131.21875 190.882812 124.4375 180.46875 124.886719 168.640625 L 125.925781 139.8125 C 125.886719 139.578125 125.921875 139.320312 125.953125 139.0625 L 132.949219 67.652344 C 133.035156 66.796875 133.777344 66.152344 134.632812 66.175781 C 135.511719 66.21875 136.191406 66.90625 136.226562 67.785156 L 138.0625 139.519531 C 138.054688 139.757812 138.019531 140.015625 137.988281 140.273438 L 141.070312 140.359375 C 141.078125 140.125 141.085938 139.84375 141.117188 139.632812 L 148.09375 68.191406 C 148.183594 67.335938 148.925781 66.691406 149.78125 66.714844 C 150.660156 66.761719 151.339844 67.449219 151.371094 68.324219 L 153.210938 140.0625 C 153.222656 140.324219 153.171875 140.554688 153.148438 140.800781 L 156.242188 140.921875 C 156.25 140.6875 156.257812 140.410156 156.269531 140.167969 L 163.273438 68.75 C 163.363281 67.894531 164.105469 67.25 164.960938 67.273438 C 165.816406 67.292969 166.519531 68.003906 166.53125 68.855469 L 168.367188 140.59375 C 168.378906 140.855469 168.347656 141.113281 168.324219 141.363281 L 171.402344 141.453125 C 171.40625 141.222656 171.414062 140.941406 171.449219 140.726562 L 178.429688 69.285156 C 178.519531 68.429688 179.257812 67.785156 180.136719 67.832031 C 180.996094 67.851562 181.671875 68.539062 181.707031 69.417969 L 183.546875 141.15625 C 183.558594 141.417969 183.507812 141.644531 183.480469 141.894531 L 183.523438 141.898438 L 182.496094 170.71875 C 182.046875 182.546875 174.554688 192.46875 164.167969 196.5 L 162.984375 357.707031 C 213.257812 367.289062 267.277344 353.632812 307.617188 316.097656 C 374.890625 253.507812 378.6875 148.230469 316.097656 80.957031 C 299.078125 62.664062 278.898438 49.074219 257.195312 40.226562 L 246.804688 200.304688 C 263.984375 207.207031 276.011719 228.171875 275.132812 252.507812 C 274.066406 281.84375 254.070312 322.390625 231.210938 321.5625 C 208.355469 320.738281 191.292969 278.855469 192.359375 249.519531 C 193.226562 225.191406 206.734375 205.148438 224.371094 199.5 L 225.601562 30.894531 C 175.308594 21.285156 121.304688 34.941406 80.957031 72.480469 C 13.695312 135.058594 9.898438 240.355469 72.480469 307.617188 C 89.496094 325.910156 109.675781 339.492188 131.371094 348.347656 L 141.285156 195.695312 " fill-opacity="1" fill-rule="nonzero"/></g></g></g></svg>